# xmcd
#
# Track frame offsets: 
#        150
#        18794
#        33191
#        47012
#        60074
#        74662
#        91290
#        105266
#        121156
#        135539
#        161849
#        180266
#        195390
#        211925
#        226268
#        239343
#
# Disc length: 3440 seconds
#
# Revision: 2
# Processed by: cddbd v1.5.2PL0 Copyright (c) Steve Scherf et al.
# Submitted via: ExactAudioCopy v0.99pb3
#
DISCID=be0d6e10
DTITLE=Amazan - Sanfoneiro Nordestino
DYEAR=2000
DGENRE=Forro
TTITLE0=Me Enganei Com Minha Noiva
TTITLE1=O Gago E A Professora
TTITLE2=Sanfoneiro Nordestino
TTITLE3=Fazer Amor
TTITLE4=A Moda Da Mulher
TTITLE5=Vaqueiro, Gado E Mulher
TTITLE6=Jeito De Sereia
TTITLE7=Tomando Uma E Beijando
TTITLE8=Tô Na Area
TTITLE9=Nó Apertado
TTITLE10=Vivo Doido, Apaixonado
TTITLE11=O Que Gosto E O Que Não Gosto
TTITLE12=Zero Boi
TTITLE13=A Lua
TTITLE14=Mamãe
TTITLE15=O Ricão Do Cabaré
EXTD=
EXTT0=
EXTT1=
EXTT2=
EXTT3=
EXTT4=
EXTT5=
EXTT6=
EXTT7=
EXTT8=
EXTT9=
EXTT10=
EXTT11=
EXTT12=
EXTT13=
EXTT14=
EXTT15=
PLAYORDER=
